<svg width="29" height="26" viewBox="0 0 29 26" fill="none" xmlns="http://www.w3.org/2000/svg">
<rect x="0.0117187" y="0.0117187" width="28.9766" height="25.9766" stroke="#1F1919" stroke-width="0.0234375"/>
<path d="M5.89056 25.1882H4.07806C3.71753 25.1882 3.37177 25.0598 3.11684 24.8313C2.86191 24.6027 2.71869 24.2927 2.71869 23.9695V16.657C2.71869 16.3337 2.86191 16.0238 3.11684 15.7952C3.37177 15.5666 3.71753 15.4382 4.07806 15.4382H5.89056C6.25109 15.4382 6.59685 15.5666 6.85179 15.7952C7.10672 16.0238 7.24994 16.3337 7.24994 16.657V23.9695C7.24994 24.2927 7.10672 24.6027 6.85179 24.8313C6.59685 25.0598 6.25109 25.1882 5.89056 25.1882V25.1882Z" fill="white"/>
<path d="M18.5781 25.1868H16.7656C16.4051 25.1868 16.0593 25.0584 15.8044 24.8298C15.5495 24.6012 15.4062 24.2912 15.4062 23.968V11.7805C15.4062 11.4573 15.5495 11.1473 15.8044 10.9187C16.0593 10.6902 16.4051 10.5618 16.7656 10.5618H18.5781C18.9387 10.5618 19.2844 10.6902 19.5393 10.9187C19.7943 11.1473 19.9375 11.4573 19.9375 11.7805V23.968C19.9375 24.2912 19.7943 24.6012 19.5393 24.8298C19.2844 25.0584 18.9387 25.1868 18.5781 25.1868V25.1868Z" fill="white"/>
<path d="M24.9218 25.1874H23.1093C22.7488 25.1874 22.403 25.059 22.1481 24.8304C21.8932 24.6018 21.75 24.2919 21.75 23.9686V6.09363C21.75 5.7704 21.8932 5.4604 22.1481 5.23184C22.403 5.00328 22.7488 4.87488 23.1093 4.87488H24.9218C25.2824 4.87488 25.6281 5.00328 25.8831 5.23184C26.138 5.4604 26.2812 5.7704 26.2812 6.09363V23.9686C26.2812 24.2919 26.138 24.6018 25.8831 24.8304C25.6281 25.059 25.2824 25.1874 24.9218 25.1874V25.1874Z" fill="white"/>
<path d="M12.2343 25.187H10.4218C10.0613 25.187 9.71555 25.0586 9.46062 24.83C9.20569 24.6015 9.06247 24.2915 9.06247 23.9683V2.03076C9.06247 1.70753 9.20569 1.39754 9.46062 1.16898C9.71555 0.940415 10.0613 0.812012 10.4218 0.812012H12.2343C12.5949 0.812012 12.9406 0.940415 13.1956 1.16898C13.4505 1.39754 13.5937 1.70753 13.5937 2.03076V23.9683C13.5937 24.2915 13.4505 24.6015 13.1956 24.83C12.9406 25.0586 12.5949 25.187 12.2343 25.187V25.187Z" fill="white"/>
</svg>
