<svg width="29" height="26" viewBox="0 0 29 26" fill="none" xmlns="http://www.w3.org/2000/svg">
<path d="M24.9729 6.92151C25.0071 6.90362 25.0354 6.87801 25.0551 6.84722C25.0749 6.81644 25.0852 6.78156 25.0852 6.74606C25.0852 6.71056 25.0749 6.67568 25.0551 6.6449C25.0354 6.61411 25.0071 6.5885 24.9729 6.57061L16.3216 2.06428C15.768 1.77662 15.1395 1.62512 14.4997 1.62512C13.8599 1.62512 13.2314 1.77662 12.6779 2.06428L4.02828 6.57061C3.99408 6.5885 3.9657 6.61411 3.94598 6.6449C3.92626 6.67568 3.91589 6.71056 3.91589 6.74606C3.91589 6.78156 3.92626 6.81644 3.94598 6.84722C3.9657 6.87801 3.99408 6.90362 4.02828 6.92151L14.3867 12.3846C14.4216 12.403 14.4613 12.4127 14.5017 12.4127C14.5421 12.4127 14.5818 12.403 14.6167 12.3846L24.9729 6.92151Z" fill="white"/>
<path d="M3.05859 8.30322C3.02404 8.28533 2.98484 8.27594 2.94494 8.276C2.90505 8.27606 2.86588 8.28556 2.83139 8.30354C2.7969 8.32153 2.76833 8.34736 2.74855 8.37842C2.72877 8.40948 2.71849 8.44468 2.71875 8.48044V17.3108C2.7196 17.7363 2.8447 18.1542 3.08159 18.523C3.31849 18.8917 3.65893 19.1984 4.06906 19.4126L13.2539 24.3501C13.2883 24.3679 13.3274 24.3773 13.3671 24.3773C13.4069 24.3773 13.4459 24.3679 13.4804 24.3501C13.5148 24.3323 13.5434 24.3067 13.5633 24.2759C13.5832 24.245 13.5937 24.21 13.5937 24.1744V13.9293C13.5937 13.8937 13.5832 13.8587 13.5633 13.8278C13.5435 13.797 13.5149 13.7714 13.4805 13.7536L3.05859 8.30322Z" fill="white"/>
<path d="M15.4062 13.9649V24.1719C15.4063 24.2075 15.4168 24.2425 15.4367 24.2734C15.4566 24.3042 15.4852 24.3298 15.5196 24.3476C15.5541 24.3654 15.5931 24.3748 15.6329 24.3748C15.6726 24.3748 15.7117 24.3654 15.7461 24.3476L24.9304 19.4101C25.3402 19.1962 25.6805 18.8899 25.9175 18.5217C26.1544 18.1534 26.2798 17.736 26.2813 17.3108V8.48049C26.2811 8.44489 26.2705 8.40995 26.2506 8.37917C26.2307 8.3484 26.202 8.32285 26.1676 8.30511C26.1332 8.28737 26.0942 8.27804 26.0545 8.27808C26.0148 8.27811 25.9758 8.28749 25.9414 8.30529L15.5195 13.7897C15.4852 13.8074 15.4567 13.833 15.4368 13.8637C15.4169 13.8944 15.4064 13.9293 15.4062 13.9649Z" fill="white"/>
</svg>
