<svg width="32" height="29" viewBox="0 0 32 29" fill="none" xmlns="http://www.w3.org/2000/svg">
<path d="M21 14.5C19.715 14.5 18.4725 13.98 17.5 13.0364C16.5544 12.116 15.9769 10.8886 15.875 9.58133C15.7663 8.18684 16.2356 6.90449 17.1963 5.96992C18.1569 5.03535 19.5 4.53125 21 4.53125C22.4894 4.53125 23.8363 5.04441 24.7938 5.97672C25.7606 6.91809 26.2313 8.19816 26.1225 9.58076C26.0181 10.8897 25.4413 12.1166 24.4975 13.0358C23.5275 13.98 22.2856 14.5 21 14.5Z" fill="white"/>
<path d="M29.2394 24.4687H12.7612C12.4963 24.47 12.2346 24.4162 11.9962 24.3114C11.7578 24.2067 11.5492 24.0537 11.3862 23.8644C11.2134 23.6591 11.0941 23.4211 11.0372 23.1682C10.9802 22.9152 10.9872 22.6538 11.0575 22.4036C11.5837 20.4886 12.8875 18.9004 14.8275 17.8112C16.5494 16.8449 18.7413 16.3125 21 16.3125C23.3031 16.3125 25.4375 16.8223 27.1694 17.788C29.1138 18.8715 30.4194 20.4688 30.9431 22.407C31.0126 22.6574 31.0188 22.9188 30.9612 23.1716C30.9036 23.4244 30.7838 23.6622 30.6106 23.8672C30.4479 24.0557 30.2397 24.2079 30.002 24.3121C29.7643 24.4164 29.5034 24.47 29.2394 24.4687Z" fill="white"/>
<path d="M9.1875 14.7266C6.98812 14.7266 5.05437 12.8733 4.875 10.5958C4.78625 9.42897 5.1875 8.34996 6 7.55869C6.80375 6.77535 7.9375 6.34375 9.1875 6.34375C10.4375 6.34375 11.5625 6.77762 12.3706 7.56549C13.1894 8.36299 13.5894 9.43973 13.4956 10.5969C13.3162 12.8738 11.3831 14.7266 9.1875 14.7266Z" fill="white"/>
<path d="M13.2913 16.5079C12.1919 16.0208 10.765 15.7772 9.18813 15.7772C7.34688 15.7772 5.55875 16.2122 4.1525 17.0018C2.55813 17.8984 1.48563 19.204 1.0525 20.7803C0.989117 21.007 0.983122 21.2438 1.03496 21.4729C1.08681 21.7021 1.19515 21.9176 1.35188 22.1034C1.50059 22.2764 1.69112 22.4162 1.90879 22.5121C2.12647 22.6079 2.3655 22.6572 2.6075 22.6562H9.545C9.6621 22.6562 9.77547 22.619 9.86536 22.5509C9.95525 22.4829 10.0159 22.3885 10.0369 22.2841C10.0438 22.2484 10.0525 22.2127 10.0625 22.1776C10.5925 20.2484 11.8344 18.6183 13.6694 17.43C13.7369 17.3859 13.7912 17.3273 13.8273 17.2593C13.8635 17.1914 13.8804 17.1164 13.8765 17.0411C13.8725 16.9658 13.848 16.8926 13.8049 16.828C13.7619 16.7635 13.7018 16.7097 13.63 16.6716C13.5319 16.6195 13.4194 16.5645 13.2913 16.5079Z" fill="white"/>
</svg>
