<svg width="29" height="26" viewBox="0 0 29 26" fill="none" xmlns="http://www.w3.org/2000/svg">
<g clip-path="url(#clip0_88_1075)">
<path d="M25.375 9.3336V3.0875C25.376 2.78887 25.3113 2.49299 25.1845 2.21685C25.0576 1.94071 24.8712 1.68974 24.6359 1.47836C24.4006 1.26698 24.1211 1.09935 23.8133 0.985081C23.5056 0.870814 23.1757 0.812166 22.8426 0.812501H15.8798C15.4232 0.813344 14.9854 0.975557 14.6614 1.26395L0.74143 13.7404C0.266677 14.1674 9.15527e-05 14.7457 9.15527e-05 15.3486C9.15527e-05 15.9515 0.266677 16.5299 0.74143 16.9569L7.36838 22.8983C7.84449 23.324 8.48948 23.5631 9.16191 23.5631C9.83434 23.5631 10.4793 23.324 10.9554 22.8983L24.8715 10.4259C25.1932 10.1355 25.3742 9.74295 25.375 9.3336ZM19.9375 7.3125C19.579 7.3125 19.2286 7.2172 18.9305 7.03864C18.6325 6.86008 18.4002 6.60629 18.263 6.30936C18.1258 6.01243 18.0899 5.6857 18.1598 5.37048C18.2298 5.05526 18.4024 4.76571 18.6559 4.53845C18.9094 4.31119 19.2323 4.15643 19.5839 4.09373C19.9355 4.03102 20.2999 4.0632 20.6311 4.1862C20.9623 4.30919 21.2454 4.51747 21.4445 4.7847C21.6437 5.05193 21.75 5.36611 21.75 5.6875C21.75 6.11848 21.559 6.5318 21.2191 6.83655C20.8792 7.1413 20.4182 7.3125 19.9375 7.3125Z" fill="white"/>
<path d="M28.0938 3.25C27.8534 3.25 27.6229 3.3356 27.4529 3.48798C27.283 3.64035 27.1875 3.84701 27.1875 4.0625V10.5305L12.3867 23.8007C12.299 23.8754 12.2289 23.965 12.1805 24.0644C12.1321 24.1638 12.1063 24.2709 12.1048 24.3793C12.1032 24.4877 12.1259 24.5954 12.1715 24.6958C12.217 24.7963 12.2846 24.8875 12.3701 24.9642C12.4557 25.0409 12.5575 25.1015 12.6695 25.1423C12.7815 25.1832 12.9016 25.2035 13.0225 25.2021C13.1435 25.2008 13.2629 25.1777 13.3738 25.1343C13.4846 25.0908 13.5846 25.028 13.668 24.9493L28.5078 11.6446C28.6657 11.5025 28.7904 11.3336 28.8749 11.1478C28.9594 10.9621 29.0019 10.7631 29 10.5625V4.0625C29 3.84701 28.9045 3.64035 28.7346 3.48798C28.5646 3.3356 28.3341 3.25 28.0938 3.25Z" fill="white"/>
</g>
<defs>
<clipPath id="clip0_88_1075">
<rect width="29" height="26" fill="white"/>
</clipPath>
</defs>
</svg>
