<svg width="33" height="30" viewBox="0 0 33 30" fill="none" xmlns="http://www.w3.org/2000/svg">
<path d="M2.0625 22.0312C2.0625 22.9015 2.44277 23.7361 3.11966 24.3514C3.79655 24.9668 4.71461 25.3125 5.67188 25.3125H27.3281C28.2854 25.3125 29.2035 24.9668 29.8803 24.3514C30.5572 23.7361 30.9375 22.9015 30.9375 22.0312V13.0078H2.0625V22.0312ZM6.31641 17.5781C6.31641 17.1119 6.52012 16.6648 6.88274 16.3352C7.24536 16.0055 7.73718 15.8203 8.25 15.8203H11.3438C11.8566 15.8203 12.3484 16.0055 12.711 16.3352C13.0736 16.6648 13.2773 17.1119 13.2773 17.5781V18.75C13.2773 19.2162 13.0736 19.6633 12.711 19.993C12.3484 20.3226 11.8566 20.5078 11.3438 20.5078H8.25C7.73718 20.5078 7.24536 20.3226 6.88274 19.993C6.52012 19.6633 6.31641 19.2162 6.31641 18.75V17.5781Z" fill="white"/>
<path d="M27.3281 4.6875H5.67188C4.71461 4.6875 3.79655 5.0332 3.11966 5.64856C2.44277 6.26391 2.0625 7.09851 2.0625 7.96875V9.49219H30.9375V7.96875C30.9375 7.09851 30.5572 6.26391 29.8803 5.64856C29.2035 5.0332 28.2854 4.6875 27.3281 4.6875Z" fill="white"/>
</svg>
